# File produced by Open Asset Import Library (http://www.assimp.sf.net)
# (assimp v5.0.639693989)

mtllib pcbv9ui5qjgf.mtl

# 8 vertex positions
v  13.6 -0.08463341 -2.4000001
v  0 -0.08463341 0
v  0 -0.08463341 -2.4000001
v  13.6 -0.08463341 0
v  13.6 2.7653666 0
v  0 2.7653666 -2.4000001
v  0 2.7653666 0
v  13.6 2.7653666 -2.4000001

# 0 UV coordinates

# 6 vertex normals
vn 0 -0.0254 0
vn 0 0.0254 0
vn 0.0254 0 0
vn 0 0 -0.0254
vn -0.0254 -0 0
vn 0 0 0.0254

# Mesh 'ID3' with 2 faces
g ID3
usemtl Color_M02
f  1//1 2//1 3//1
f  2//1 1//1 4//1

# Mesh 'ID11' with 10 faces
g ID11
usemtl Translucent_Glass_Gray
f  5//2 6//2 7//2
f  6//2 5//2 8//2
f  1//3 5//3 4//3
f  5//3 1//3 8//3
f  6//4 1//4 3//4
f  1//4 6//4 8//4
f  6//5 2//5 7//5
f  2//5 6//5 3//5
f  5//6 2//6 4//6
f  2//6 5//6 7//6

