<svg xmlns="http://www.w3.org/2000/svg" width="886" height="1000" viewBox="0 0 886 1000">
  <defs>
    <style>
      .cls-1 {
        fill: #fff;
      }
    </style>
  </defs>
  <title>Symbol-White</title>
  <g id="Content">
    <path class="cls-1" d="M759.86,119.93C720,81.67,672.54,52.56,619.31,31.77,565.25,11.81,505.37,1,443,1S320.75,11.81,266.69,31.77c-53.23,20.79-100.64,49.9-140.55,88.16A397.24,397.24,0,0,0,33.82,254.66C12.2,307.05,1.38,364.44,1.38,425.15c0,62.37,12.48,125.58,36.6,187.12,22.45,57.39,55.72,112.28,97.3,163.84a700.4,700.4,0,0,0,136.4,130.57A668.23,668.23,0,0,0,431.36,994L443,999l11.64-5a668.23,668.23,0,0,0,159.68-87.33,700.4,700.4,0,0,0,136.4-130.57c41.58-51.56,74.85-106.45,97.3-163.84,24.12-61.54,36.6-124.75,36.6-187.12,0-60.71-10.82-118.1-32.44-170.49A397.1,397.1,0,0,0,759.86,119.93ZM698.32,733.7A647.22,647.22,0,0,1,573.57,851.79c-41.58,30.78-85.66,55.73-130.57,74-44.91-18.29-89-43.24-130.57-74A647.22,647.22,0,0,1,187.68,733.7a652.92,652.92,0,0,1-71.52-112.28c18.29-1.66,34.92-5.82,49.89-14.14C182.69,599,196,585.66,207.64,569c17.46-26.61,26.61-61.55,35.76-97.31,5.82-25,13.31-52.39,20.79-63.2,4.16-5.83,7.49-7.49,12.48-7.49,4.15,0,7.48,1.66,10.81,6.66,6.65,10.81,15,39.08,20.79,64,9.15,35.76,18.3,70.7,35.76,97.31,11.64,16.63,25,29.94,41.58,38.25,16.64,9.15,35.77,14.14,57.39,14.14s40.75-5,57.39-14.14C517,599,530.33,585.66,542,569c17.46-26.61,26.61-61.55,35.76-97.31,5.82-25,14.14-53.22,20.79-64,3.33-5,6.66-6.66,10.81-6.66,5,0,8.32,1.66,12.48,7.49,7.48,10.81,15,38.25,20.79,63.2,9.15,35.76,18.3,70.7,35.76,97.31C690,585.66,703.31,599,720,607.28c15,8.32,31.6,12.48,49.9,14.14A653.59,653.59,0,0,1,698.32,733.7ZM806.44,516.63c-28.28,0-37.43-3.32-44.91-18.29-5-9.15-10.81-27.45-17.47-52.4-20-85.66-49.9-149.7-133.06-149.7h-1.67c-84,0-113.1,64.87-133.06,149.7-6.66,24.95-15.81,57.39-21.63,64-4.15,5-9.15,6.65-11.64,6.65S435.52,515,431.36,510c-5.82-6.65-15-39.09-21.63-64-20-84.83-49.06-149.7-133.06-149.7H275c-83.16,0-113.1,64-133.06,149.7-6.66,24.95-12.48,43.25-17.47,52.4-7.48,15-16.63,18.29-44.91,18.29a434,434,0,0,1-10-91.48c0-51.56,9.15-99.8,27.45-143.88A317.19,317.19,0,0,1,173.54,169C206,137.39,245.9,113.27,290.81,95.81,337.38,78.34,388.94,69.2,443,69.2s105.62,9.14,152.19,26.61C640.1,113.27,680,137.39,712.46,169A317.19,317.19,0,0,1,789,281.27c18.3,44.08,27.45,92.32,27.45,143.88A434,434,0,0,1,806.44,516.63Z"/>
  </g>
</svg>
