<svg xmlns="http://www.w3.org/2000/svg" width="2000" height="618" viewBox="0 0 2000 618">
  <title>Horizontal-Black</title>
  <g id="Content">
    <g>
      <path d="M468.33,74.82c-24.6-23.57-53.8-41.5-86.6-54.31a320.7,320.7,0,0,0-217.27,0c-32.79,12.81-62,30.74-86.6,54.31a245,245,0,0,0-56.88,83c-13.32,32.28-20,67.63-20,105,0,38.43,7.69,77.38,22.55,115.3,13.83,35.35,34.33,69.17,60,100.94a431.52,431.52,0,0,0,84,80.46,412.16,412.16,0,0,0,98.38,53.8l7.18,3.07,7.17-3.07a412.22,412.22,0,0,0,98.39-53.8,431.46,431.46,0,0,0,84-80.46c25.62-31.77,46.12-65.59,60-100.94,14.86-37.92,22.54-76.87,22.54-115.3,0-37.41-6.66-72.76-20-105A244.69,244.69,0,0,0,468.33,74.82ZM430.41,453a398.91,398.91,0,0,1-76.86,72.77,371.92,371.92,0,0,1-80.45,45.6,371.92,371.92,0,0,1-80.45-45.6A399.26,399.26,0,0,1,115.78,453a402.78,402.78,0,0,1-44.07-69.18c11.28-1,21.53-3.58,30.75-8.71,10.25-5.12,18.45-13.32,25.62-23.57,10.76-16.4,16.4-37.92,22-59.95,3.58-15.38,8.19-32.29,12.81-38.95,2.56-3.58,4.61-4.61,7.68-4.61,2.56,0,4.61,1,6.66,4.1,4.1,6.66,9.23,24.08,12.81,39.46,5.64,22,11.28,43.55,22,59.95,7.17,10.25,15.37,18.45,25.62,23.57a76.11,76.11,0,0,0,70.71,0c10.25-5.12,18.45-13.32,25.63-23.57,10.76-16.4,16.39-37.92,22-59.95,3.59-15.38,8.71-32.8,12.81-39.46,2.05-3.07,4.1-4.1,6.66-4.1,3.08,0,5.13,1,7.69,4.61,4.61,6.66,9.22,23.57,12.81,38.95,5.64,22,11.27,43.55,22,59.95,7.18,10.25,15.38,18.45,25.62,23.57,9.23,5.13,19.48,7.69,30.75,8.71A402.78,402.78,0,0,1,430.41,453ZM497,319.25c-17.43,0-23.06-2.05-27.67-11.27-3.08-5.64-6.67-16.91-10.77-32.29-12.29-52.78-30.74-92.23-82-92.23h-1c-51.75,0-69.69,40-82,92.23-4.1,15.38-9.73,35.36-13.32,39.46-2.56,3.07-5.64,4.1-7.17,4.1s-4.61-1-7.18-4.1c-3.58-4.1-9.22-24.08-13.32-39.46-12.3-52.26-30.23-92.23-82-92.23h-1c-51.24,0-69.69,39.45-82,92.23-4.1,15.38-7.69,26.65-10.76,32.29-4.61,9.22-10.25,11.27-27.67,11.27A267.3,267.3,0,0,1,43,262.88c0-31.77,5.64-61.49,16.91-88.65a195.5,195.5,0,0,1,47.14-69.17c20-19.48,44.58-34.34,72.25-45.1,28.7-10.76,60.47-16.4,93.78-16.4S338.17,49.2,366.87,60c27.67,10.76,52.27,25.62,72.25,45.1a195.5,195.5,0,0,1,47.14,69.17c11.28,27.16,16.92,56.88,16.92,88.65A267.3,267.3,0,0,1,497,319.25Z"/>
      <path d="M903.05,200.62c-14,0-25.94,3-35.39,9.06a53.49,53.49,0,0,0-18.22,20h-1.1c-9-18.22-27.7-29-50.42-29-28.92,0-43,14.76-49.87,28V203.38H696.14v177.9h52.65V273.67c0-18.14,10.83-28.55,29.72-28.55,16.54,0,26.42,8.09,26.42,21.64V381.28h52.65V273.67c0-18.14,10.83-28.55,29.72-28.55,16.55,0,26.43,8.09,26.43,21.64V381.28h52.65v-118c0-17.81-6.59-33.94-18.54-45.41C936.23,206.75,920.32,200.62,903.05,200.62Z"/>
      <path d="M1152.56,227.57h-.15c-13.44-19.53-33-29-59.61-29a83.52,83.52,0,0,0-61.15,26.59c-16.52,17.46-25.62,41.33-25.62,67.2s9.1,49.74,25.62,67.2a83.52,83.52,0,0,0,61.15,26.59c26.65,0,46.17-9.5,59.61-29h.15v24.19h51.92V203.38h-51.92Zm-14,100.57c-8.35,8.36-19.87,12.78-33.33,12.78-13.08,0-24.83-4.46-33.07-12.55-8.83-8.67-13.5-21.13-13.5-36s4.67-27.37,13.5-36c8.24-8.09,20-12.55,33.07-12.55,13.46,0,25,4.42,33.33,12.79,8.66,8.68,13.24,21.06,13.24,35.8S1147.24,319.46,1138.58,328.14Z"/>
      <path d="M1368.63,200.62c-16,0-29.52,3.26-40.19,9.71a50.76,50.76,0,0,0-19.2,20.4V203.38h-51.92v177.9H1310V289.57c0-29.08,14.58-44.45,42.17-44.45,24.37,0,37.78,12.35,37.78,34.77V381.28h52.65V275.74c0-22.35-7.33-41.36-21.21-55C1408.12,207.77,1389.39,200.62,1368.63,200.62Z"/>
      <path d="M1569.32,150.16h-52.65v53.22h-46.16V247.2h46.16v97.66A35.08,35.08,0,0,0,1528,371.1c7.16,6.57,17,10.18,27.83,10.18h53.07V337.46h-32.55c-4.91,0-7-2.12-7-7.11V247.2h49.82V203.38h-49.82Z"/>
      <path d="M1730.68,208.72a37.07,37.07,0,0,0-17,18.75V203.38h-51.92v177.9h52.65v-100c0-20.77,13.5-32.69,37-32.69h30.36V202.69H1761C1748.26,202.69,1738.36,204.66,1730.68,208.72Z"/>
      <path d="M1947.08,203.38v24.19h-.15c-13.44-19.53-33-29-59.61-29a83.52,83.52,0,0,0-61.15,26.59c-16.52,17.46-25.61,41.33-25.61,67.2s9.09,49.74,25.61,67.2a83.52,83.52,0,0,0,61.15,26.59c26.65,0,46.17-9.5,59.61-29h.15v24.19H1999V203.38Zm-14,124.76c-8.35,8.36-19.87,12.78-33.32,12.78-13.09,0-24.84-4.46-33.08-12.55-8.82-8.67-13.49-21.13-13.49-36s4.67-27.37,13.49-36c8.24-8.09,20-12.55,33.08-12.55,13.45,0,25,4.42,33.32,12.79,8.67,8.68,13.25,21.06,13.25,35.8S1941.77,319.46,1933.1,328.14Z"/>
    </g>
  </g>
</svg>
