<svg xmlns="http://www.w3.org/2000/svg" width="952" height="1000" viewBox="0 0 952 1000">
  <title>Vertical-Black</title>
  <g id="Content">
    <g>
      <path d="M704.5,86.76c-28.78-27.58-63-48.58-101.35-63.57C564.16,8.8,521,1,476,1S387.84,8.8,348.85,23.19c-38.38,15-72.57,36-101.35,63.57a286.56,286.56,0,0,0-66.57,97.16c-15.6,37.79-23.39,79.17-23.39,123,0,45,9,90.56,26.38,134.94,16.2,41.39,40.19,81,70.17,118.15a505.39,505.39,0,0,0,98.36,94.16,482.42,482.42,0,0,0,115.15,63l8.4,3.59,8.4-3.59a482.42,482.42,0,0,0,115.15-63A505.39,505.39,0,0,0,697.91,560c30-37.18,54-76.76,70.17-118.15,17.39-44.38,26.38-90,26.38-134.94,0-43.78-7.79-85.16-23.39-123A286.56,286.56,0,0,0,704.5,86.76ZM660.12,529.38a467.2,467.2,0,0,1-90,85.16A435.28,435.28,0,0,1,476,667.92a435.28,435.28,0,0,1-94.16-53.38A448.82,448.82,0,0,1,240.3,448.41c13.19-1.2,25.19-4.2,36-10.2,12-6,21.6-15.59,30-27.58,12.6-19.2,19.19-44.39,25.79-70.17,4.2-18,9.6-37.79,15-45.58,3-4.2,5.4-5.4,9-5.4,3,0,5.4,1.2,7.8,4.8,4.8,7.79,10.79,28.18,15,46.18,6.6,25.78,13.2,51,25.79,70.17,8.4,12,18,21.59,30,27.58,12,6.6,25.79,10.2,41.38,10.2s29.39-3.6,41.38-10.2c12-6,21.59-15.59,30-27.58,12.59-19.2,19.19-44.39,25.79-70.17,4.2-18,10.19-38.39,15-46.18,2.4-3.6,4.8-4.8,7.8-4.8,3.6,0,6,1.2,9,5.4,5.39,7.79,10.79,27.58,15,45.58,6.6,25.78,13.19,51,25.79,70.17,8.39,12,18,21.59,30,27.58,10.79,6,22.79,9,36,10.2A471.33,471.33,0,0,1,660.12,529.38Zm78-156.54c-20.39,0-27-2.4-32.39-13.19-3.6-6.6-7.79-19.79-12.59-37.79-14.4-61.77-36-108-96-108H596c-60.58,0-81.57,46.78-96,108-4.8,18-11.4,41.39-15.59,46.18-3,3.6-6.6,4.8-8.4,4.8s-5.4-1.2-8.4-4.8c-4.19-4.79-10.79-28.18-15.59-46.18-14.39-61.17-35.38-108-96-108h-1.2c-60,0-81.56,46.18-96,108-4.8,18-9,31.19-12.59,37.79-5.4,10.79-12,13.19-32.39,13.19a312.73,312.73,0,0,1-7.2-66c0-37.18,6.6-72,19.8-103.76a228.83,228.83,0,0,1,55.17-81C305.07,99.36,333.86,82,366.25,69.37,399.83,56.78,437,50.18,476,50.18s76.17,6.6,109.75,19.19c32.39,12.6,61.18,30,84.57,52.78a228.83,228.83,0,0,1,55.17,81c13.2,31.79,19.8,66.58,19.8,103.76A312.73,312.73,0,0,1,738.09,372.84Z"/>
      <path d="M152.14,863.85c-10.22,0-18.9,2.22-25.79,6.6A39.08,39.08,0,0,0,113.08,885h-.8c-6.57-13.28-20.18-21.15-36.73-21.15-21.07,0-31.35,10.75-36.33,20.43V865.86H1.39V995.48H39.75V917.07c0-13.21,7.89-20.79,21.65-20.79,12.06,0,19.25,5.89,19.25,15.76v83.44H119V917.07c0-13.21,7.9-20.79,21.66-20.79,12.05,0,19.25,5.89,19.25,15.76v83.44h38.36v-86c0-13-4.8-24.73-13.51-33.09C176.31,868.32,164.72,863.85,152.14,863.85Z"/>
      <path d="M333.92,883.49h-.11c-9.79-14.23-24-21.15-43.43-21.15a60.87,60.87,0,0,0-44.55,19.37c-12,12.72-18.66,30.11-18.66,49s6.63,36.24,18.66,49A60.87,60.87,0,0,0,290.38,999c19.42,0,33.64-6.92,43.43-21.15h.11v17.63h37.83V865.86H333.92Zm-10.18,73.26c-6.08,6.1-14.48,9.32-24.28,9.32-9.54,0-18.09-3.25-24.1-9.14-6.43-6.32-9.83-15.4-9.83-26.26s3.4-19.94,9.83-26.26c6-5.9,14.56-9.14,24.1-9.14,9.8,0,18.2,3.22,24.28,9.31,6.31,6.33,9.65,15.35,9.65,26.09S330.05,950.43,323.74,956.75Z"/>
      <path d="M491.34,863.85c-11.65,0-21.5,2.38-29.28,7.07a37.08,37.08,0,0,0-14,14.86V865.86H410.25V995.48h38.36V928.65c0-21.18,10.62-32.37,30.72-32.37,17.75,0,27.53,9,27.53,25.32v73.88h38.36v-76.9c0-16.28-5.35-30.13-15.46-40.05C520.11,869.06,506.47,863.85,491.34,863.85Z"/>
      <path d="M637.56,827.09H599.2v38.77H565.57v31.93H599.2v71.15a25.59,25.59,0,0,0,8.24,19.12,29.8,29.8,0,0,0,20.28,7.42h38.66V963.55H642.67c-3.58,0-5.11-1.55-5.11-5.19V897.79h36.3V865.86h-36.3Z"/>
      <path d="M755.12,869.75a27,27,0,0,0-12.41,13.66V865.86H704.88V995.48h38.36V922.61c0-15.14,9.84-23.82,27-23.82h22.11V865.36H777.17C767.93,865.36,760.72,866.8,755.12,869.75Z"/>
      <path d="M912.78,865.86v17.63h-.11c-9.79-14.23-24-21.15-43.42-21.15a60.87,60.87,0,0,0-44.56,19.37c-12,12.72-18.66,30.11-18.66,49s6.63,36.24,18.66,49A60.87,60.87,0,0,0,869.25,999c19.41,0,33.63-6.92,43.42-21.15h.11v17.63h37.83V865.86ZM902.6,956.75c-6.08,6.1-14.48,9.32-24.28,9.32-9.53,0-18.09-3.25-24.1-9.14-6.43-6.32-9.83-15.4-9.83-26.26s3.4-19.94,9.83-26.26c6-5.9,14.57-9.14,24.1-9.14,9.8,0,18.2,3.22,24.28,9.31,6.31,6.33,9.65,15.35,9.65,26.09S908.91,950.43,902.6,956.75Z"/>
    </g>
  </g>
</svg>
