<?xml version="1.0" encoding="utf-8"?>
<!-- Generator: Adobe Illustrator 16.0.0, SVG Export Plug-In . SVG Version: 6.00 Build 0)  -->
<!DOCTYPE svg PUBLIC "-//W3C//DTD SVG 1.1//EN" "http://www.w3.org/Graphics/SVG/1.1/DTD/svg11.dtd">
<svg version="1.1" id="Layer_1" xmlns="http://www.w3.org/2000/svg" xmlns:xlink="http://www.w3.org/1999/xlink" x="0px" y="0px"
	 width="1100px" height="1100px" viewBox="0 0 1100 1100" enable-background="new 0 0 1100 1100" xml:space="preserve">
<path d="M778.503,128.763c-28.788-27.588-62.974-48.579-101.357-63.572C638.162,50.797,594.98,43,550.001,43
	c-44.981,0-88.164,7.797-127.146,22.191c-38.384,14.993-72.57,35.984-101.357,63.572c-28.788,27.589-50.979,59.975-66.572,97.159
	c-15.593,37.784-23.39,79.167-23.39,122.948c0,44.981,8.996,90.561,26.388,134.943c16.194,41.382,40.184,80.965,70.171,118.149
	c28.188,35.385,61.174,67.172,98.358,94.16c36.584,26.989,75.568,47.979,115.151,62.973l8.397,3.6l8.396-3.6
	c39.583-14.993,78.567-35.983,115.151-62.973c37.184-26.988,70.17-58.775,98.357-94.16c29.987-37.184,53.978-76.767,70.17-118.149
	c17.394-44.382,26.39-89.962,26.39-134.943c0-43.781-7.797-85.164-23.391-122.948C829.481,188.738,807.291,156.352,778.503,128.763
	 M734.121,571.375c-25.788,31.787-55.775,60.574-89.962,85.164c-29.986,22.191-61.772,40.183-94.158,53.377
	c-32.387-13.194-64.173-31.186-94.161-53.377c-34.185-24.59-64.172-53.377-89.961-85.164
	c-20.392-25.789-37.784-53.377-51.579-80.965c13.195-1.2,25.19-4.198,35.985-10.196c11.995-5.997,21.591-15.593,29.988-27.588
	c12.594-19.192,19.191-44.381,25.789-70.17c4.198-17.993,9.595-37.784,14.993-45.581c2.999-4.198,5.398-5.398,8.996-5.398
	c2.999,0,5.398,1.2,7.797,4.798c4.798,7.797,10.796,28.188,14.994,46.181c6.597,25.789,13.194,50.978,25.789,70.17
	c8.396,11.995,17.992,21.591,29.987,27.588c11.995,6.597,25.789,10.196,41.383,10.196c15.593,0,29.387-3.599,41.382-10.196
	c11.995-5.997,21.591-15.593,29.986-27.588c12.595-19.192,19.192-44.381,25.789-70.17c4.198-17.993,10.196-38.384,14.993-46.181
	c2.4-3.598,4.799-4.798,7.797-4.798c3.6,0,5.998,1.2,8.996,5.398c5.398,7.797,10.796,27.588,14.994,45.581
	c6.597,25.789,13.194,50.978,25.789,70.17c8.397,11.995,17.992,21.591,29.987,27.588c10.796,5.998,22.791,8.996,35.984,10.196
	C771.905,517.998,754.513,545.586,734.121,571.375 M812.089,414.842c-20.393,0-26.989-2.399-32.387-13.194
	c-3.599-6.598-7.797-19.792-12.595-37.785c-14.394-61.773-35.984-107.954-95.959-107.954h-1.2
	c-60.573,0-81.564,46.781-95.959,107.954c-4.798,17.993-11.395,41.383-15.593,46.181c-2.999,3.598-6.598,4.798-8.396,4.798
	c-1.8,0-5.398-1.2-8.397-4.798c-4.198-4.798-10.795-28.188-15.594-46.181c-14.393-61.173-35.384-107.954-95.959-107.954h-1.199
	c-59.974,0-81.565,46.181-95.959,107.954c-4.798,17.993-8.996,31.187-12.595,37.785c-5.398,10.795-11.995,13.194-32.386,13.194
	c-4.798-22.191-7.197-44.381-7.197-65.972c0-37.184,6.597-71.969,19.791-103.756c12.595-31.188,31.187-58.175,55.177-80.965
	c23.39-22.791,52.178-40.183,84.564-52.778c33.586-12.595,70.77-19.192,109.754-19.192c38.982,0,76.167,6.597,109.753,19.192
	c32.386,12.595,61.174,29.987,84.563,52.778c23.99,22.79,42.582,49.778,55.176,80.965c13.195,31.787,19.792,66.572,19.792,103.756
	C819.285,370.461,816.887,392.651,812.089,414.842"/>
<path d="M226.143,905.848c-10.225,0-18.901,2.221-25.79,6.601c-5.423,3.448-9.882,8.338-13.269,14.548h-0.806
	c-6.57-13.275-20.179-21.148-36.73-21.148c-21.07,0-31.35,10.754-36.332,20.428v-18.414H75.39v129.614h38.36v-78.403
	c0-13.217,7.892-20.797,21.653-20.797c12.054,0,19.251,5.892,19.251,15.761v83.439h38.36v-78.403
	c0-13.217,7.892-20.797,21.653-20.797c12.054,0,19.251,5.892,19.251,15.761v83.439h38.36v-85.957c0-12.98-4.797-24.73-13.506-33.085
	C250.312,910.317,238.724,905.848,226.143,905.848"/>
<path d="M407.922,925.485h-0.11c-9.791-14.229-24.012-21.148-43.428-21.148c-16.913,0-32.736,6.879-44.553,19.371
	c-12.034,12.721-18.662,30.108-18.662,48.961c0,18.851,6.628,36.239,18.662,48.96c11.817,12.492,27.64,19.371,44.553,19.371
	c19.416,0,33.637-6.92,43.428-21.149h0.11v17.625h37.825V907.861h-37.825V925.485z M397.738,998.755
	c-6.083,6.093-14.478,9.313-24.28,9.313c-9.535,0-18.093-3.247-24.096-9.142c-6.433-6.317-9.833-15.397-9.833-26.258
	c0-10.862,3.4-19.942,9.833-26.259c6.003-5.896,14.561-9.143,24.096-9.143c9.802,0,18.197,3.221,24.28,9.314
	c6.313,6.323,9.65,15.345,9.65,26.087C407.389,983.41,404.052,992.431,397.738,998.755"/>
<path d="M565.344,905.848c-11.657,0-21.508,2.38-29.28,7.075c-6.093,3.681-10.792,8.675-13.991,14.861v-19.923h-37.826v129.614
	h38.36v-66.821c0-21.183,10.625-32.379,30.727-32.379c17.75,0,27.525,8.995,27.525,25.329v73.871h38.359v-76.894
	c0-16.283-5.344-30.135-15.455-40.053C594.113,911.062,580.468,905.848,565.344,905.848"/>
<path d="M711.56,869.088H673.2v38.773h-33.627v31.925H673.2v71.152c0,7.458,2.926,14.247,8.239,19.117
	c5.222,4.784,12.424,7.42,20.281,7.42h38.662v-31.925h-23.717c-3.579,0-5.106-1.551-5.106-5.188v-60.577h36.296v-31.925H711.56
	V869.088z"/>
<path d="M829.118,911.755c-5.618,2.969-9.693,7.451-12.407,13.66v-17.554h-37.826v129.614h38.359v-72.864
	c0-15.137,9.838-23.818,26.99-23.818h22.115v-33.436h-15.176C841.931,907.357,834.716,908.797,829.118,911.755"/>
<path d="M986.784,907.861v17.624h-0.11c-9.791-14.229-24.012-21.148-43.428-21.148c-16.913,0-32.736,6.879-44.553,19.371
	c-12.035,12.721-18.662,30.108-18.662,48.961c0,18.851,6.627,36.239,18.662,48.96c11.816,12.492,27.64,19.371,44.553,19.371
	c19.416,0,33.637-6.92,43.428-21.149h0.11v17.625h37.826V907.861H986.784z M976.601,998.755c-6.083,6.093-14.479,9.313-24.28,9.313
	c-9.535,0-18.093-3.247-24.096-9.142c-6.434-6.317-9.833-15.397-9.833-26.258c0-10.862,3.399-19.942,9.833-26.259
	c6.003-5.896,14.561-9.143,24.096-9.143c9.801,0,18.197,3.221,24.28,9.314c6.313,6.323,9.649,15.345,9.649,26.087
	C986.25,983.41,982.913,992.431,976.601,998.755"/>
</svg>
